<svg width="155" height="178" viewBox="0 0 155 178" fill="none" xmlns="http://www.w3.org/2000/svg">
<path opacity="0.2" d="M77.0763 0L154.153 44.5V133.5L77.0763 178L0 133.5V44.5L77.0763 0Z" fill="#22C55E"/>
<circle cx="78" cy="62" r="12.75" stroke="#4ADE80"/>
<path d="M78 66.25L78 57.75" stroke="#4ADE80" stroke-linecap="square"/>
<path d="M82.25 62L73.75 62" stroke="#4ADE80" stroke-linecap="square"/>
<path d="M54.7557 88.0795C54.661 87.7727 54.5303 87.4981 54.3636 87.2557C54.2008 87.0095 54.0038 86.7992 53.7727 86.625C53.5455 86.4508 53.2841 86.3201 52.9886 86.233C52.6932 86.142 52.3712 86.0966 52.0227 86.0966C51.3977 86.0966 50.8409 86.2538 50.3523 86.5682C49.8636 86.8826 49.4792 87.3447 49.1989 87.9545C48.9223 88.5606 48.7841 89.2992 48.7841 90.1705C48.7841 91.0492 48.9223 91.7936 49.1989 92.4034C49.4754 93.0133 49.8598 93.4773 50.3523 93.7955C50.8447 94.1098 51.4167 94.267 52.0682 94.267C52.6591 94.267 53.1705 94.1534 53.6023 93.9261C54.0379 93.6989 54.3731 93.3769 54.608 92.9602C54.8428 92.5398 54.9602 92.0473 54.9602 91.483L55.4375 91.5568H52.2784V89.9091H57V91.3068C57 92.303 56.7879 93.1648 56.3636 93.892C55.9394 94.6193 55.3561 95.1799 54.6136 95.5739C53.8712 95.964 53.0189 96.1591 52.0568 96.1591C50.9848 96.1591 50.0436 95.9186 49.233 95.4375C48.4261 94.9527 47.7955 94.2652 47.3409 93.375C46.8902 92.4811 46.6648 91.4205 46.6648 90.1932C46.6648 89.2538 46.7973 88.4148 47.0625 87.6761C47.3314 86.9375 47.7064 86.3106 48.1875 85.7955C48.6686 85.2765 49.233 84.8826 49.8807 84.6136C50.5284 84.3409 51.233 84.2045 51.9943 84.2045C52.6383 84.2045 53.2386 84.2992 53.7955 84.4886C54.3523 84.6742 54.8466 84.9394 55.2784 85.2841C55.714 85.6288 56.072 86.0379 56.3523 86.5114C56.6326 86.9848 56.8163 87.5076 56.9034 88.0795H54.7557ZM59.0384 96V84.3636H63.402C64.2959 84.3636 65.0459 84.5189 65.652 84.8295C66.2618 85.1402 66.7221 85.5758 67.0327 86.1364C67.3471 86.6932 67.5043 87.3428 67.5043 88.0852C67.5043 88.8314 67.3452 89.4792 67.027 90.0284C66.7126 90.5739 66.2486 90.9962 65.6349 91.2955C65.0213 91.5909 64.2675 91.7386 63.3736 91.7386H60.2656V89.9886H63.0895C63.6122 89.9886 64.0402 89.9167 64.3736 89.7727C64.7069 89.625 64.9531 89.411 65.1122 89.1307C65.2751 88.8466 65.3565 88.4981 65.3565 88.0852C65.3565 87.6723 65.2751 87.3201 65.1122 87.0284C64.9493 86.733 64.7012 86.5095 64.3679 86.358C64.0346 86.2027 63.6046 86.125 63.0781 86.125H61.1463V96H59.0384ZM65.0497 90.7273L67.9304 96H65.5781L62.7486 90.7273H65.0497ZM70.9389 96H68.6889L72.7855 84.3636H75.3878L79.4901 96H77.2401L74.1321 86.75H74.0412L70.9389 96ZM71.0128 91.4375H77.1491V93.1307H71.0128V91.4375ZM90.4361 88.2898H88.3111C88.2505 87.9413 88.1387 87.6326 87.9759 87.3636C87.813 87.0909 87.6103 86.8598 87.3679 86.6705C87.1255 86.4811 86.849 86.339 86.5384 86.2443C86.2315 86.1458 85.9001 86.0966 85.544 86.0966C84.9115 86.0966 84.3509 86.2557 83.8622 86.5739C83.3736 86.8883 82.991 87.3504 82.7145 87.9602C82.438 88.5663 82.2997 89.3068 82.2997 90.1818C82.2997 91.072 82.438 91.822 82.7145 92.4318C82.9948 93.0379 83.3774 93.4962 83.8622 93.8068C84.3509 94.1136 84.9096 94.267 85.5384 94.267C85.8868 94.267 86.2126 94.2216 86.5156 94.1307C86.8224 94.036 87.0971 93.8977 87.3395 93.7159C87.5857 93.5341 87.7921 93.3106 87.9588 93.0455C88.1293 92.7803 88.2467 92.4773 88.3111 92.1364L90.4361 92.1477C90.3565 92.7008 90.1842 93.2197 89.919 93.7045C89.6577 94.1894 89.3149 94.6174 88.8906 94.9886C88.4664 95.3561 87.9702 95.6439 87.402 95.8523C86.8338 96.0568 86.2031 96.1591 85.5099 96.1591C84.4872 96.1591 83.5743 95.9223 82.7713 95.4489C81.9683 94.9754 81.3357 94.2917 80.8736 93.3977C80.4115 92.5038 80.1804 91.4318 80.1804 90.1818C80.1804 88.928 80.4134 87.8561 80.8793 86.9659C81.3452 86.072 81.9796 85.3883 82.7827 84.9148C83.5857 84.4413 84.4948 84.2045 85.5099 84.2045C86.1577 84.2045 86.7599 84.2955 87.3168 84.4773C87.8736 84.6591 88.3698 84.9261 88.8054 85.2784C89.241 85.6269 89.599 86.0549 89.8793 86.5625C90.1634 87.0663 90.349 87.642 90.4361 88.2898ZM94.4744 84.3636V96H92.3665V84.3636H94.4744ZM98.2514 96H96.0014L100.098 84.3636H102.7L106.803 96H104.553L101.445 86.75H101.354L98.2514 96ZM98.3253 91.4375H104.462V93.1307H98.3253V91.4375Z" fill="#4ADE80"/>
</svg>
