<svg width="155" height="178" viewBox="0 0 155 178" fill="none" xmlns="http://www.w3.org/2000/svg">
<g opacity="0.2">
<path d="M153.652 44.7881V133.211L77.0762 177.423L0.5 133.211V44.7881L77.0762 0.576172L153.652 44.7881Z" fill="white" fill-opacity="0.2" stroke="white"/>
<path d="M60.0211 91.9545V90.017L64.8791 82.3636H66.5495V85.0455H65.5609L62.4984 89.892V89.983H69.4018V91.9545H60.0211ZM65.6063 94V91.3636L65.6518 90.5057V82.3636H67.9586V94H65.6063ZM75.5419 94.1591C74.6669 94.1591 73.8885 94.017 73.2067 93.733C72.5286 93.4451 71.9964 93.053 71.6101 92.5568C71.2237 92.0606 71.0305 91.4981 71.0305 90.8693C71.0305 90.3845 71.1404 89.9394 71.3601 89.5341C71.5836 89.125 71.8866 88.786 72.2692 88.517C72.6518 88.2443 73.0798 88.0701 73.5533 87.9943V87.9148C72.9321 87.7898 72.4283 87.4886 72.0419 87.0114C71.6555 86.5303 71.4624 85.9716 71.4624 85.3352C71.4624 84.733 71.6385 84.197 71.9908 83.7273C72.343 83.2538 72.826 82.8826 73.4396 82.6136C74.0571 82.3409 74.7578 82.2045 75.5419 82.2045C76.326 82.2045 77.0249 82.3409 77.6385 82.6136C78.2559 82.8864 78.7408 83.2595 79.093 83.733C79.4453 84.2027 79.6233 84.7367 79.6271 85.3352C79.6233 85.9754 79.4264 86.5341 79.0362 87.0114C78.6461 87.4886 78.1461 87.7898 77.5362 87.9148V87.9943C78.0021 88.0701 78.4245 88.2443 78.8033 88.517C79.1858 88.786 79.4889 89.125 79.7124 89.5341C79.9396 89.9394 80.0552 90.3845 80.0589 90.8693C80.0552 91.4981 79.8601 92.0606 79.4737 92.5568C79.0874 93.053 78.5533 93.4451 77.8714 93.733C77.1934 94.017 76.4169 94.1591 75.5419 94.1591ZM75.5419 92.3523C75.9321 92.3523 76.273 92.2822 76.5646 92.142C76.8563 91.9981 77.0836 91.8011 77.2464 91.5511C77.4131 91.2973 77.4964 91.0057 77.4964 90.6761C77.4964 90.339 77.4112 90.0417 77.2408 89.7841C77.0703 89.5227 76.8393 89.3182 76.5476 89.1705C76.2559 89.0189 75.9207 88.9432 75.5419 88.9432C75.1669 88.9432 74.8317 89.0189 74.5362 89.1705C74.2408 89.3182 74.0078 89.5227 73.8374 89.7841C73.6707 90.0417 73.5874 90.339 73.5874 90.6761C73.5874 91.0057 73.6688 91.2973 73.8317 91.5511C73.9946 91.8011 74.2237 91.9981 74.5192 92.142C74.8146 92.2822 75.1555 92.3523 75.5419 92.3523ZM75.5419 87.1534C75.8677 87.1534 76.1574 87.0871 76.4112 86.9545C76.665 86.822 76.8639 86.6383 77.0078 86.4034C77.1518 86.1686 77.2237 85.8977 77.2237 85.5909C77.2237 85.2879 77.1518 85.0227 77.0078 84.7955C76.8639 84.5644 76.6669 84.3845 76.4169 84.2557C76.1669 84.1231 75.8752 84.0568 75.5419 84.0568C75.2124 84.0568 74.9207 84.1231 74.6669 84.2557C74.4131 84.3845 74.2143 84.5644 74.0703 84.7955C73.9302 85.0227 73.8601 85.2879 73.8601 85.5909C73.8601 85.8977 73.9321 86.1686 74.076 86.4034C74.2199 86.6383 74.4188 86.822 74.6726 86.9545C74.9264 87.0871 75.2161 87.1534 75.5419 87.1534ZM88.3084 91.8182V91.2045C88.3084 90.7386 88.4069 90.3106 88.6039 89.9205C88.8046 89.5265 89.0944 89.2121 89.4732 88.9773C89.8558 88.7386 90.3217 88.6193 90.8709 88.6193C91.4278 88.6193 91.8956 88.7367 92.2743 88.9716C92.6569 89.2064 92.9448 89.5208 93.138 89.9148C93.335 90.3049 93.4334 90.7348 93.4334 91.2045V91.8182C93.4334 92.2841 93.335 92.714 93.138 93.108C92.941 93.4981 92.6512 93.8106 92.2687 94.0455C91.8861 94.2841 91.4202 94.4034 90.8709 94.4034C90.3141 94.4034 89.8463 94.2841 89.4675 94.0455C89.0887 93.8106 88.8009 93.4981 88.6039 93.108C88.4069 92.714 88.3084 92.2841 88.3084 91.8182ZM89.9618 91.2045V91.8182C89.9618 92.0871 90.0262 92.3409 90.155 92.5795C90.2876 92.8182 90.5262 92.9375 90.8709 92.9375C91.2156 92.9375 91.4505 92.8201 91.5755 92.5852C91.7043 92.3504 91.7687 92.0947 91.7687 91.8182V91.2045C91.7687 90.928 91.7081 90.6705 91.5868 90.4318C91.4656 90.1932 91.227 90.0739 90.8709 90.0739C90.53 90.0739 90.2933 90.1932 90.1607 90.4318C90.0281 90.6705 89.9618 90.928 89.9618 91.2045ZM82.3368 85.1591V84.5455C82.3368 84.0758 82.4372 83.6458 82.638 83.2557C82.8387 82.8617 83.1285 82.5473 83.5073 82.3125C83.8899 82.0777 84.352 81.9602 84.8937 81.9602C85.4543 81.9602 85.924 82.0777 86.3028 82.3125C86.6815 82.5473 86.9694 82.8617 87.1664 83.2557C87.3634 83.6458 87.4618 84.0758 87.4618 84.5455V85.1591C87.4618 85.6288 87.3615 86.0587 87.1607 86.4489C86.9637 86.839 86.674 87.1515 86.2914 87.3864C85.9126 87.6174 85.4467 87.733 84.8937 87.733C84.3406 87.733 83.8728 87.6155 83.4903 87.3807C83.1115 87.142 82.8236 86.8295 82.6266 86.4432C82.4334 86.053 82.3368 85.625 82.3368 85.1591ZM84.0016 84.5455V85.1591C84.0016 85.4356 84.066 85.6913 84.1948 85.9261C84.3274 86.161 84.5603 86.2784 84.8937 86.2784C85.2421 86.2784 85.4789 86.161 85.6039 85.9261C85.7327 85.6913 85.7971 85.4356 85.7971 85.1591V84.5455C85.7971 84.2689 85.7365 84.0114 85.6153 83.7727C85.494 83.5341 85.2535 83.4148 84.8937 83.4148C84.5565 83.4148 84.3236 83.536 84.1948 83.7784C84.066 84.0208 84.0016 84.2765 84.0016 84.5455ZM83.0868 94L91.0868 82.3636H92.5755L84.5755 94H83.0868Z" fill="white"/>
</g>
</svg>
