<svg width="155" height="178" viewBox="0 0 155 178" fill="none" xmlns="http://www.w3.org/2000/svg">
<path opacity="0.2" d="M77.0763 0L154.153 44.5V133.5L77.0763 178L0 133.5V44.5L77.0763 0Z" fill="#EF4444"/>
<circle cx="78" cy="62" r="12.75" stroke="#F87171"/>
<path d="M78 66.25L78 57.75" stroke="#F87171" stroke-linecap="square"/>
<path d="M82.25 62L73.75 62" stroke="#F87171" stroke-linecap="square"/>
<path d="M56.6747 87.5625C56.6217 87.0663 56.3982 86.6799 56.0043 86.4034C55.6141 86.1269 55.1065 85.9886 54.4815 85.9886C54.0421 85.9886 53.6652 86.0549 53.3509 86.1875C53.0365 86.3201 52.7959 86.5 52.6293 86.7273C52.4626 86.9545 52.3774 87.214 52.3736 87.5057C52.3736 87.7481 52.4285 87.9583 52.5384 88.1364C52.652 88.3144 52.8054 88.4659 52.9986 88.5909C53.1918 88.7121 53.4058 88.8144 53.6406 88.8977C53.8755 88.9811 54.1122 89.0511 54.3509 89.108L55.4418 89.3807C55.8812 89.483 56.3035 89.6212 56.7088 89.7955C57.1179 89.9697 57.4834 90.1894 57.8054 90.4545C58.1312 90.7197 58.3887 91.0398 58.5781 91.4148C58.7675 91.7898 58.8622 92.2292 58.8622 92.733C58.8622 93.4148 58.688 94.0152 58.3395 94.5341C57.991 95.0492 57.4872 95.4527 56.8281 95.7443C56.1728 96.0322 55.3793 96.1761 54.4474 96.1761C53.5421 96.1761 52.7562 96.036 52.0895 95.7557C51.4266 95.4754 50.9077 95.0663 50.5327 94.5284C50.1615 93.9905 49.9607 93.3352 49.9304 92.5625H52.0043C52.0346 92.9678 52.1596 93.3049 52.3793 93.5739C52.599 93.8428 52.8849 94.0436 53.2372 94.1761C53.5933 94.3087 53.991 94.375 54.4304 94.375C54.8887 94.375 55.2902 94.3068 55.6349 94.1705C55.9834 94.0303 56.2562 93.8371 56.4531 93.5909C56.6501 93.3409 56.7505 93.0492 56.7543 92.7159C56.7505 92.4129 56.6615 92.1629 56.4872 91.9659C56.313 91.7652 56.0687 91.5985 55.7543 91.4659C55.4437 91.3295 55.08 91.2083 54.6634 91.1023L53.3395 90.7614C52.3812 90.5152 51.6236 90.142 51.0668 89.642C50.5137 89.1383 50.2372 88.4697 50.2372 87.6364C50.2372 86.9508 50.4228 86.3504 50.794 85.8352C51.169 85.3201 51.6785 84.9205 52.3224 84.6364C52.9664 84.3485 53.6955 84.2045 54.5099 84.2045C55.3357 84.2045 56.0592 84.3485 56.6804 84.6364C57.3054 84.9205 57.7959 85.3163 58.152 85.8239C58.508 86.3277 58.6918 86.9072 58.7031 87.5625H56.6747ZM62.0483 96H59.7983L63.8949 84.3636H66.4972L70.5994 96H68.3494L65.2415 86.75H65.1506L62.0483 96ZM62.1222 91.4375H68.2585V93.1307H62.1222V91.4375ZM81.6946 84.3636V96H79.8196L74.3366 88.0739H74.2401V96H72.1321V84.3636H74.0185L79.4957 92.2955H79.598V84.3636H81.6946ZM83.4801 86.1307V84.3636H92.7642V86.1307H89.1676V96H87.0767V86.1307H83.4801ZM100.878 87.5625C100.825 87.0663 100.601 86.6799 100.207 86.4034C99.8172 86.1269 99.3097 85.9886 98.6847 85.9886C98.2453 85.9886 97.8684 86.0549 97.554 86.1875C97.2396 86.3201 96.9991 86.5 96.8324 86.7273C96.6657 86.9545 96.5805 87.214 96.5767 87.5057C96.5767 87.7481 96.6316 87.9583 96.7415 88.1364C96.8551 88.3144 97.0085 88.4659 97.2017 88.5909C97.3949 88.7121 97.6089 88.8144 97.8438 88.8977C98.0786 88.9811 98.3153 89.0511 98.554 89.108L99.6449 89.3807C100.084 89.483 100.507 89.6212 100.912 89.7955C101.321 89.9697 101.687 90.1894 102.009 90.4545C102.334 90.7197 102.592 91.0398 102.781 91.4148C102.971 91.7898 103.065 92.2292 103.065 92.733C103.065 93.4148 102.891 94.0152 102.543 94.5341C102.194 95.0492 101.69 95.4527 101.031 95.7443C100.376 96.0322 99.5824 96.1761 98.6506 96.1761C97.7453 96.1761 96.9593 96.036 96.2926 95.7557C95.6297 95.4754 95.1108 95.0663 94.7358 94.5284C94.3646 93.9905 94.1638 93.3352 94.1335 92.5625H96.2074C96.2377 92.9678 96.3627 93.3049 96.5824 93.5739C96.8021 93.8428 97.0881 94.0436 97.4403 94.1761C97.7964 94.3087 98.1941 94.375 98.6335 94.375C99.0919 94.375 99.4934 94.3068 99.8381 94.1705C100.187 94.0303 100.459 93.8371 100.656 93.5909C100.853 93.3409 100.954 93.0492 100.957 92.7159C100.954 92.4129 100.865 92.1629 100.69 91.9659C100.516 91.7652 100.272 91.5985 99.9574 91.4659C99.6468 91.3295 99.2831 91.2083 98.8665 91.1023L97.5426 90.7614C96.5843 90.5152 95.8267 90.142 95.2699 89.642C94.7169 89.1383 94.4403 88.4697 94.4403 87.6364C94.4403 86.9508 94.6259 86.3504 94.9972 85.8352C95.3722 85.3201 95.8816 84.9205 96.5256 84.6364C97.1695 84.3485 97.8987 84.2045 98.7131 84.2045C99.5388 84.2045 100.262 84.3485 100.884 84.6364C101.509 84.9205 101.999 85.3163 102.355 85.8239C102.711 86.3277 102.895 86.9072 102.906 87.5625H100.878Z" fill="#F87171"/>
</svg>
